<svg width="781" height="781" viewBox="0 0 781 781" fill="none" xmlns="http://www.w3.org/2000/svg">
<g clip-path="url(#clip0_631_2213)">
<mask id="mask0_631_2213" style="mask-type:luminance" maskUnits="userSpaceOnUse" x="-358" y="-128" width="1425" height="1069">
<path d="M1067 -128H-358V941H1067V-128Z" fill="white"/>
</mask>
<g mask="url(#mask0_631_2213)">
<path d="M431.642 494.321C431.032 492.856 389.535 486.43 368.864 483.401C361.34 489.894 346.009 503.547 344.867 506.217C343.439 509.554 345.276 535.695 361.749 554.632C378.222 573.567 413.918 544.323 425.274 539.742C436.63 535.163 432.404 496.154 431.642 494.321Z" fill="#2C2C2C"/>
<path d="M130.508 350.325C129.898 348.859 88.4013 342.434 67.729 339.405C60.2059 345.897 44.8747 359.551 43.7329 362.221C42.3053 365.557 44.1426 391.699 60.6147 410.635C77.0877 429.571 112.783 400.327 124.14 395.746C135.497 391.165 131.271 352.158 130.508 350.325Z" fill="#131313"/>
<path fill-rule="evenodd" clip-rule="evenodd" d="M374.9 508.373L413.672 489.725L413.68 489.742C413.92 489.622 414.161 489.506 414.404 489.392C437.504 478.632 470.994 501.815 489.206 541.171C507.417 580.528 503.455 621.156 480.355 631.915C480.07 632.048 479.783 632.175 479.495 632.297L442.038 650.338L420.573 604.947C414.946 597.721 409.829 589.373 405.554 580.135C401.609 571.612 398.706 563.029 396.811 554.703L374.9 508.373Z" fill="black"/>
<path d="M441.926 650.392C418.826 661.151 385.348 637.993 367.15 598.668C348.952 559.342 352.926 518.74 376.026 507.981C399.126 497.221 432.605 520.379 450.802 559.705C469 599.03 465.026 639.632 441.926 650.392Z" fill="black"/>
<g filter="url(#filter0_d_631_2213)">
<path d="M432.364 632.653C415.038 640.722 389.928 623.353 376.279 593.858C362.63 564.362 365.611 533.909 382.937 525.839C400.262 517.769 425.372 535.138 439.021 564.634C452.67 594.13 449.69 624.583 432.364 632.653Z" fill="url(#paint0_linear_631_2213)"/>
</g>
<g filter="url(#filter1_di_631_2213)">
<path fill-rule="evenodd" clip-rule="evenodd" d="M408.614 537.421C413.584 540.299 418.503 544.567 422.97 549.949L413.125 567.621C411.812 566.124 410.41 564.874 408.982 563.911L408.614 537.421ZM409.439 596.801C411.502 597.547 413.521 597.624 415.303 596.9L430.427 622.357C429.708 622.835 428.953 623.26 428.161 623.629C422.683 626.18 416.269 625.671 409.799 622.712L409.439 596.801ZM407.595 621.611L407.236 595.761C405.531 594.77 403.841 593.358 402.275 591.598L392.612 608.944C397.278 614.481 402.422 618.806 407.595 621.611ZM406.776 562.665L406.409 536.238C399.615 532.878 392.835 532.186 387.086 534.864C385.483 535.611 384.027 536.588 382.722 537.769L397.977 563.447C398.484 562.989 399.049 562.609 399.671 562.32C401.791 561.333 404.272 561.526 406.776 562.665ZM381.553 591.389C384.27 597.261 387.534 602.553 391.124 607.116L400.787 589.769C399.571 588.137 398.463 586.285 397.525 584.255C397.434 584.059 397.345 583.863 397.258 583.666L380.275 588.486C380.68 589.454 381.106 590.422 381.553 591.389ZM414.605 569.465L424.449 551.794C427.911 556.26 431.059 561.41 433.694 567.103C434.235 568.272 434.744 569.443 435.222 570.613L418.053 575.486C417.957 575.267 417.859 575.049 417.758 574.831C416.847 572.862 415.778 571.06 414.605 569.465ZM379.452 586.441C376.301 578.297 374.658 570.209 374.456 562.886L394.829 574.313C395.007 576.629 395.539 579.111 396.442 581.62L379.452 586.441ZM418.865 577.534C419.94 580.546 420.484 583.517 420.519 586.208L440.811 597.589C440.874 589.938 439.307 581.343 436.028 572.663L418.865 577.534ZM440.732 600.058L420.402 588.656C420.058 591.698 418.967 594.211 417.171 595.756L432.183 621.025C437.325 616.598 440.226 609.095 440.732 600.058ZM374.442 560.367L394.778 571.771C394.88 569.228 395.464 566.982 396.505 565.258L381.136 539.388C376.875 544.278 374.602 551.696 374.442 560.367Z" fill="#4C4C4C"/>
</g>
<path fill-rule="evenodd" clip-rule="evenodd" d="M374.91 507.55L413.683 488.903L413.686 488.912C413.928 488.789 414.172 488.672 414.418 488.557C437.518 477.797 471.008 500.98 489.219 540.337C507.431 579.694 503.468 620.321 480.368 631.081C480.154 631.18 479.938 631.277 479.721 631.372L442.048 649.515L420.563 604.083C414.945 596.864 409.836 588.526 405.567 579.301C401.63 570.791 398.728 562.221 396.834 553.908L374.91 507.55Z" fill="black"/>
<path d="M367.083 599.44C385.069 638.308 418.094 661.226 440.845 650.63C463.597 640.032 467.459 599.932 449.473 561.064C431.487 522.196 397.447 497.185 374.696 507.783C351.944 518.379 349.097 560.571 367.083 599.44Z" fill="black"/>
<g filter="url(#filter2_d_631_2213)">
<path d="M431.136 631.047C414.974 638.791 391.531 621.873 378.776 593.26C366.02 564.646 368.783 535.172 384.946 527.428C401.108 519.684 424.551 536.602 437.306 565.215C450.062 593.829 447.299 623.303 431.136 631.047Z" fill="url(#paint1_linear_631_2213)"/>
</g>
<g filter="url(#filter3_di_631_2213)">
<path fill-rule="evenodd" clip-rule="evenodd" d="M387.833 592.668C396.6 610.124 410.729 620.826 421.763 618.669L412.7 598.718C408.127 598.347 402.919 594.202 399.173 587.8L387.833 592.668ZM385.144 586.66C378.027 568.676 379.123 550.786 387.473 543.192L396.536 563.141C393.869 567.26 393.727 574.463 396.386 581.833L385.144 586.66ZM417.967 572.569C413.884 564.444 407.439 559.297 402.162 559.674L393.22 539.992C404.807 536.759 420.267 548.509 429.209 567.742L417.967 572.569ZM420.378 578.697L431.718 573.828C438.169 591.704 436.525 609.095 427.727 615.946L418.783 596.26C421.857 592.734 422.477 585.936 420.378 578.697Z" fill="#474747"/>
</g>
<path fill-rule="evenodd" clip-rule="evenodd" d="M80.3682 368.583L115.856 358.875L115.86 358.891C116.089 358.823 116.319 358.76 116.552 358.699C137.641 353.21 162.251 377.881 171.52 413.803C180.79 449.725 171.208 483.295 150.118 488.784C149.857 488.853 149.594 488.916 149.331 488.975L115.02 498.381L103.906 456.753C100.312 449.836 97.3132 442.065 95.1499 433.682C93.1549 425.95 92.0327 418.328 91.7112 411.071L80.3682 368.583Z" fill="black"/>
<path d="M114.895 498.405C93.8053 503.894 69.2004 479.246 59.9381 443.353C50.6757 407.459 60.2633 373.911 81.3526 368.422C102.442 362.933 127.047 387.58 136.309 423.474C145.571 459.368 135.984 492.915 114.895 498.405Z" fill="black"/>
<g filter="url(#filter4_d_631_2213)">
<path d="M109.579 482.003C93.7611 486.12 75.3065 467.634 68.3595 440.712C61.4124 413.79 68.6034 388.629 84.4211 384.511C100.239 380.394 118.693 398.881 125.64 425.803C132.587 452.724 125.396 477.886 109.579 482.003Z" fill="url(#paint2_linear_631_2213)"/>
</g>
<g filter="url(#filter5_di_631_2213)">
<path fill-rule="evenodd" clip-rule="evenodd" d="M104.221 398.206C107.965 401.394 111.452 405.747 114.385 410.969L103.376 424.33C102.5 422.864 101.511 421.592 100.454 420.559L104.221 398.206ZM95.7805 448.304C97.4085 449.254 99.1016 449.629 100.718 449.289L109.528 473.044C108.849 473.335 108.148 473.576 107.424 473.765C102.417 475.068 97.0932 473.646 92.1004 470.15L95.7805 448.304ZM90.4162 468.883L94.0874 447.09C92.8067 445.995 91.6043 444.55 90.5587 442.831L79.7715 455.922C82.8415 461.295 86.5001 465.726 90.4162 468.883ZM98.7899 419.172L102.547 396.871C97.3524 393.006 91.7602 391.382 86.5171 392.747C85.0538 393.127 83.6804 393.725 82.4006 394.517L91.2819 418.462C91.7744 418.159 92.3026 417.931 92.8654 417.784C94.8008 417.28 96.859 417.825 98.7899 419.172ZM73.1693 439.45C74.5515 444.808 76.4824 449.764 78.7998 454.155L89.5871 441.064C88.8131 439.5 88.1638 437.767 87.6847 435.91C87.6384 435.731 87.5947 435.552 87.552 435.374L72.5405 436.808C72.732 437.686 72.9413 438.568 73.1693 439.45ZM104.337 426.11L115.346 412.749C117.572 417.042 119.43 421.863 120.771 427.061C121.047 428.126 121.295 429.188 121.517 430.245L106.307 431.698C106.26 431.5 106.211 431.301 106.159 431.102C105.697 429.308 105.076 427.631 104.337 426.11ZM72.162 434.961C70.7646 427.626 70.6265 420.572 71.5804 414.383L86.9464 427.125C86.7388 429.103 86.8065 431.274 87.1797 433.526L72.162 434.961ZM106.675 433.547C107.116 436.246 107.116 438.829 106.732 441.098L122.07 453.816C123.301 447.385 123.305 439.907 121.88 432.095L106.675 433.547ZM121.624 455.88L106.259 443.139C105.503 445.64 104.204 447.583 102.463 448.609L111.21 472.194C116.214 469.263 119.807 463.4 121.624 455.88ZM71.9563 412.26L87.2946 424.98C87.7746 422.848 88.6154 421.043 89.7634 419.751L80.818 395.633C76.477 399.092 73.4231 404.986 71.9563 412.26Z" fill="#4C4C4C"/>
</g>
<path fill-rule="evenodd" clip-rule="evenodd" d="M104.586 460.585C99.0539 451.985 94.4824 441.591 91.4997 430.032C88.6871 419.131 87.6103 408.447 88.0636 398.697L80.2725 369.514L99.0789 364.369C102.849 359.708 107.497 356.457 112.901 355.049C133.99 349.56 158.601 374.231 167.871 410.153C176.725 444.468 168.378 476.637 149.23 484.232L149.864 486.59L114.925 499.313L104.586 460.585Z" fill="black"/>
<path d="M114.407 499.413C93.3849 504.885 68.8588 480.316 59.6261 444.537C50.3934 408.759 59.9503 375.318 80.972 369.847C101.994 364.375 126.52 388.944 135.752 424.723C144.985 460.501 135.428 493.942 114.407 499.413Z" fill="black"/>
<g filter="url(#filter6_d_631_2213)">
<g filter="url(#filter7_d_631_2213)">
<path d="M108.812 481.694C93.8957 485.245 76.4879 467.021 69.9305 440.988C63.3732 414.956 70.1495 390.973 85.0658 387.422C99.9821 383.871 117.39 402.096 123.947 428.128C130.505 454.161 123.728 478.143 108.812 481.694Z" fill="url(#paint3_linear_631_2213)"/>
</g>
<g filter="url(#filter8_di_631_2213)">
<path fill-rule="evenodd" clip-rule="evenodd" d="M77.0264 442.358C81.6238 457.588 91.2416 468.593 100.514 469.675L96.4357 451.312C92.9543 449.927 89.5842 445.917 87.501 440.533L77.0264 442.358ZM75.5996 436.712C72.1457 419.836 76.2168 404.632 85.1266 400.386L89.2039 418.747C86.0145 421.603 84.6528 427.918 85.9237 434.912L75.5996 436.712ZM105.81 431.445C103.758 423.898 99.1994 418.281 94.683 417.294L90.6698 399.224C100.882 399.519 111.783 412.227 116.119 429.649L105.81 431.445ZM106.803 437.168L117.262 435.344C119.745 451.583 115.215 465.688 106.171 469.023L102.158 450.956C105.499 448.907 107.273 443.528 106.803 437.168Z" fill="#474747"/>
</g>
</g>
<g filter="url(#filter9_ii_631_2213)">
<path d="M746.324 545.706C751.516 535.258 750.082 526.022 750.225 517.659L749.931 496.331C749.699 479.394 749.655 464.881 749.414 459.32C749.183 453.76 755.079 437.596 725.198 408.209C698.364 381.822 639.778 351.597 625.234 347.92C610.69 344.242 548.124 256.952 525.073 240.029C456.223 189.484 282.786 142.413 240.06 143.007C215.298 142.302 112.529 195.245 101.088 202.532C41.9319 240.21 82.051 224.813 38.7462 281.456C35.8543 284.527 34.0855 300.414 34.8488 308.399C33.7961 311.314 31.4591 317.362 31.2409 318.43C29.8853 325.072 34.6894 357.902 34.7784 364.301C34.8826 371.776 33.5912 385.356 35.1756 392.885C36.761 400.412 56.0091 418.192 56.1632 415.907C56.0466 407.521 56.5818 406.01 58.6035 392.559C64.0987 371.556 74.0265 362.153 82.0074 360.356C98.7022 356.598 114.106 363.283 126.49 384.272C150.345 424.706 140.913 450.377 144.341 467.533L358.384 574.929C356.24 563.014 356.73 568.15 356.207 560.677C355.554 551.336 355.063 507.342 382.152 497.565C406.021 488.95 436.942 518.752 451.613 543.061C463.922 563.455 473.824 605.474 475.789 627.757C487.134 633.345 528.651 656.169 591.729 635.381C715.962 594.44 741.14 556.131 746.324 545.706Z" fill="url(#paint4_linear_631_2213)"/>
</g>
<mask id="mask1_631_2213" style="mask-type:alpha" maskUnits="userSpaceOnUse" x="31" y="143" width="720" height="501">
<path d="M746.324 545.706C751.516 535.258 750.082 526.022 750.225 517.659L749.931 496.331C749.699 479.394 749.655 464.881 749.414 459.32C749.183 453.76 755.079 437.596 725.198 408.209C698.364 381.822 639.778 351.597 625.234 347.92C610.69 344.242 548.124 256.952 525.073 240.029C456.223 189.484 282.786 142.413 240.06 143.007C215.298 142.302 112.529 195.245 101.088 202.532C41.9319 240.21 82.051 224.813 38.7462 281.456C35.9977 284.375 34.2636 298.871 34.7535 307.156C34.8016 307.979 34.7045 308.8 34.4186 309.573C33.2644 312.697 31.4324 317.49 31.2409 318.43C29.8853 325.072 34.6894 357.902 34.7784 364.301C34.8826 371.776 33.5912 385.356 35.1756 392.885C36.761 400.412 56.0091 418.193 56.1632 415.908C56.3173 413.622 57.3665 400.772 56.735 391.937C56.5213 376.558 69.177 363.244 82.0074 360.356C98.7022 356.598 114.085 361.724 126.468 382.714C151.172 424.585 138.521 446.683 140.075 463.487C140.234 465.2 141.364 466.632 142.903 467.4L347.957 569.726C352.146 571.816 356.413 568.188 356.084 563.518C356.03 562.753 355.967 561.757 355.868 560.348C355.216 551.007 355.063 507.342 382.152 497.565C406.021 488.95 436.942 518.752 451.613 543.061C463.37 562.542 472.933 601.758 475.478 624.651C475.694 626.585 476.837 628.282 478.58 629.146C492.992 636.299 533.023 654.728 591.729 635.381C715.962 594.44 741.14 556.131 746.324 545.706Z" fill="url(#paint5_linear_631_2213)"/>
</mask>
<g mask="url(#mask1_631_2213)">
<g filter="url(#filter10_ddi_631_2213)">
<path d="M414.108 419.316C393.675 403.977 395.052 384.345 363.321 328.81C361.425 325.493 362.784 321.236 366.279 319.696L524.402 250.026C526.683 249.021 529.613 248.616 531.511 250.231C536.437 254.422 548.57 266.929 578.459 303.146C597.349 326.038 600.956 331.765 614.966 345.574C616.631 347.221 613.345 351.688 606.291 357.674C583.785 376.755 448.356 445.025 414.108 419.316Z" fill="url(#paint6_linear_631_2213)"/>
</g>
<g filter="url(#filter11_di_631_2213)">
<path d="M221.38 258.357C176.877 237.23 164.705 234.77 133.93 246.991C118.373 253.17 99.1131 260.006 96.5 270.731C93.8869 281.456 139.678 306.314 153.072 313.485C159.619 316.989 393.155 436.472 388.147 422.257C382.01 404.835 348.67 335.149 336.405 317.568C328.511 306.253 265.882 279.483 221.38 258.357Z" fill="url(#paint7_linear_631_2213)"/>
</g>
<g filter="url(#filter12_f_631_2213)">
<path d="M473.146 508.704C416.12 483.15 383.823 450.527 349.269 420.777C451.337 449.506 665.019 512.51 661.742 516.85C657.645 522.274 642.46 528.852 591.73 532.982C541.786 537.048 479.676 511.629 473.146 508.704Z" fill="url(#paint8_linear_631_2213)" fill-opacity="0.21"/>
</g>
<g filter="url(#filter13_f_631_2213)">
<path d="M690.188 379.934C686.929 377.331 645.898 335.965 615.313 315.512C641.035 364.028 699.593 469.444 704.893 468.838C711.519 468.082 741.8 461.973 750.457 441.189C758.98 420.726 694.258 383.187 690.188 379.934Z" fill="url(#paint9_linear_631_2213)" fill-opacity="0.13"/>
</g>
<g filter="url(#filter14_di_631_2213)">
<path d="M275.492 405.736C275.479 404.895 274.99 404.134 274.229 403.777L255.11 394.805C253.648 394.118 251.974 395.199 251.996 396.817L252.035 399.568C252.046 400.41 252.539 401.171 253.3 401.528L272.418 410.464C273.881 411.147 275.552 410.066 275.529 408.45L275.492 405.736Z" fill="#323232"/>
</g>
<g filter="url(#filter15_di_631_2213)">
<path d="M166.401 359.39C166.39 358.549 165.9 357.788 165.139 357.431L146.02 348.457C144.558 347.771 142.884 348.853 142.906 350.471L142.945 353.221C142.956 354.063 143.448 354.825 144.21 355.181L163.329 364.117C164.791 364.8 166.462 363.719 166.439 362.103L166.401 359.39Z" fill="#323232"/>
</g>
<path d="M546.681 391.672L424.501 294.85C409.766 299.061 376.43 314.976 370.05 317.475C361.784 320.712 362.176 325.49 362.176 325.49C362.211 327.999 361.888 326.248 364.594 331.181C369.085 339.369 372.687 346.683 382.417 367.789C399.13 404.044 402.711 413.182 416.685 421.306C427.21 427.425 449.142 428.339 475.599 419.197C499.247 411.025 526.371 401.169 546.681 391.672Z" fill="#C4C4C4" fill-opacity="0.2"/>
<g opacity="0.17" filter="url(#filter16_f_631_2213)">
<path d="M721.493 434.563C686.687 462.898 608.971 503.792 574.104 510.348" stroke="url(#paint10_linear_631_2213)" stroke-width="81.1568" stroke-linecap="round" stroke-linejoin="round"/>
</g>
<g filter="url(#filter17_dii_631_2213)">
<path d="M734.104 450.114C740.847 440.735 738.798 433.347 737.631 421.662C737.614 421.457 737.56 421.233 737.489 421.039C734.193 411.543 747.544 430.525 749.085 443.745C749.592 448.096 749.343 450.306 748.987 454.335C748.826 456.177 742.833 468.432 743.429 470.849C744.026 473.267 743.634 491.544 743.75 494.068C743.875 496.594 735.342 513.024 707.884 531.539C685.084 546.919 652.176 557.264 648.791 557.799C645.407 558.333 641.934 547.012 639.467 546.418C633.01 544.865 614.093 552.115 607.021 553.999C598.765 556.197 579.51 561.268 558.357 558.849C532.186 555.857 528.148 552.943 503.954 540.198C487.481 531.521 475.76 514.161 471.758 504.995C471.013 503.289 472.547 501.747 474.325 502.296C490.125 507.173 525.994 519.925 566.578 523.516C624.308 528.624 669.463 500.588 675.929 496.557C703.12 479.617 717.432 473.294 734.104 450.114Z" fill="#141414"/>
</g>
<mask id="mask2_631_2213" style="mask-type:alpha" maskUnits="userSpaceOnUse" x="472" y="421" width="281" height="139">
<path d="M734.131 450.001C739.475 442.556 739.635 433.964 738.166 426.459C737.373 422.396 741.336 420.162 743.509 423.714C748.889 432.484 751.231 439.972 751.926 444.107C752.433 448.459 752.362 451.227 752.015 455.255C751.855 457.097 742.628 467.669 743.224 470.085C743.821 472.502 743.465 487.463 743.545 492.78C743.616 498.098 735.414 512.909 707.973 531.441C685.173 546.835 652.274 557.201 648.889 557.737C645.505 558.274 642.023 546.955 639.556 546.363C633.099 544.813 614.182 552.075 607.11 553.963C598.863 556.166 579.608 561.249 558.455 558.843C532.282 555.866 528.241 552.954 504.038 540.224C488.663 532.138 477.418 516.49 472.725 506.988C471.457 504.42 473.735 502.13 476.478 502.994C493.206 508.262 527.768 520.088 566.649 523.504C624.388 528.577 669.516 500.514 675.982 496.48C703.164 479.524 717.476 473.192 734.131 450.001Z" fill="#272727"/>
</mask>
<g mask="url(#mask2_631_2213)">
<g filter="url(#filter18_d_631_2213)">
<path d="M592.068 512.86C592.558 515.065 592.843 518.004 592.13 521.058C591.418 524.08 589.726 527.278 586.127 530.052C582.503 532.845 576.874 535.265 568.235 536.548C563.096 537.309 555.98 537.382 548.659 536.097C541.322 534.811 533.884 532.183 528.011 527.631C524.835 525.17 520.91 520.277 517.708 515.858C516.125 513.676 514.751 511.652 513.771 510.175C513.757 510.152 513.743 510.13 513.729 510.109L591.302 510.199C591.311 510.214 591.32 510.228 591.32 510.243C591.542 510.862 591.827 511.762 592.068 512.86Z" stroke="white" stroke-opacity="0.9" stroke-width="3.41524"/>
</g>
<g filter="url(#filter19_d_631_2213)">
<path d="M737.881 425.822C738.612 427.073 739.529 428.88 740.268 431.087C741.738 435.5 742.459 441.452 739.609 447.832C738.79 449.648 737.623 450.865 736.412 451.372C735.29 451.844 733.936 451.797 732.386 450.656C731.317 449.87 729.848 449.572 728.512 449.457C727.123 449.337 725.609 449.397 724.237 449.521C723.649 449.574 723.079 449.641 722.554 449.71L737.855 425.787C737.864 425.799 737.873 425.811 737.881 425.822Z" stroke="white" stroke-opacity="0.9" stroke-width="3.41524"/>
</g>
</g>
</g>
<g filter="url(#filter20_f_631_2213)">
<path d="M366.258 476.687L153.916 379.911C151.952 379.016 149.89 381.188 150.764 383.162C160.679 405.551 159.479 429.275 159.071 440.778C159.04 441.656 159.529 442.462 160.316 442.852L350.558 536.904C352.063 537.648 353.826 536.533 353.839 534.854C354.047 508.619 360.432 489.509 366.95 481.937C368.223 480.459 368.032 477.496 366.258 476.687Z" fill="url(#paint11_linear_631_2213)" fill-opacity="0.12"/>
</g>
</g>
</g>
<defs>
<filter id="filter0_d_631_2213" x="366.482" y="522.633" width="82.3353" height="113.226" filterUnits="userSpaceOnUse" color-interpolation-filters="sRGB">
<feFlood flood-opacity="0" result="BackgroundImageFix"/>
<feColorMatrix in="SourceAlpha" type="matrix" values="0 0 0 0 0 0 0 0 0 0 0 0 0 0 0 0 0 0 127 0" result="hardAlpha"/>
<feOffset/>
<feGaussianBlur stdDeviation="0.614824"/>
<feComposite in2="hardAlpha" operator="out"/>
<feColorMatrix type="matrix" values="0 0 0 0 0 0 0 0 0 0 0 0 0 0 0 0 0 0 0.25 0"/>
<feBlend mode="normal" in2="BackgroundImageFix" result="effect1_dropShadow_631_2213"/>
<feBlend mode="normal" in="SourceGraphic" in2="effect1_dropShadow_631_2213" result="shape"/>
</filter>
<filter id="filter1_di_631_2213" x="370.753" y="532.975" width="70.7968" height="94.7553" filterUnits="userSpaceOnUse" color-interpolation-filters="sRGB">
<feFlood flood-opacity="0" result="BackgroundImageFix"/>
<feColorMatrix in="SourceAlpha" type="matrix" values="0 0 0 0 0 0 0 0 0 0 0 0 0 0 0 0 0 0 127 0" result="hardAlpha"/>
<feOffset dy="0.491859"/>
<feGaussianBlur stdDeviation="0.368894"/>
<feColorMatrix type="matrix" values="0 0 0 0 1 0 0 0 0 1 0 0 0 0 1 0 0 0 0.41 0"/>
<feBlend mode="normal" in2="BackgroundImageFix" result="effect1_dropShadow_631_2213"/>
<feBlend mode="normal" in="SourceGraphic" in2="effect1_dropShadow_631_2213" result="shape"/>
<feColorMatrix in="SourceAlpha" type="matrix" values="0 0 0 0 0 0 0 0 0 0 0 0 0 0 0 0 0 0 127 0" result="hardAlpha"/>
<feOffset dx="-3.68894" dy="2.4593"/>
<feGaussianBlur stdDeviation="1.84447"/>
<feComposite in2="hardAlpha" operator="arithmetic" k2="-1" k3="1"/>
<feColorMatrix type="matrix" values="0 0 0 0 0 0 0 0 0 0 0 0 0 0 0 0 0 0 0.25 0"/>
<feBlend mode="normal" in2="shape" result="effect2_innerShadow_631_2213"/>
</filter>
<filter id="filter2_d_631_2213" x="369.701" y="524.493" width="76.6805" height="109.49" filterUnits="userSpaceOnUse" color-interpolation-filters="sRGB">
<feFlood flood-opacity="0" result="BackgroundImageFix"/>
<feColorMatrix in="SourceAlpha" type="matrix" values="0 0 0 0 0 0 0 0 0 0 0 0 0 0 0 0 0 0 127 0" result="hardAlpha"/>
<feOffset/>
<feGaussianBlur stdDeviation="0.529003"/>
<feComposite in2="hardAlpha" operator="out"/>
<feColorMatrix type="matrix" values="0 0 0 0 0 0 0 0 0 0 0 0 0 0 0 0 0 0 0.25 0"/>
<feBlend mode="normal" in2="BackgroundImageFix" result="effect1_dropShadow_631_2213"/>
<feBlend mode="normal" in="SourceGraphic" in2="effect1_dropShadow_631_2213" result="shape"/>
</filter>
<filter id="filter3_di_631_2213" x="376.115" y="539.171" width="60.3848" height="82.6558" filterUnits="userSpaceOnUse" color-interpolation-filters="sRGB">
<feFlood flood-opacity="0" result="BackgroundImageFix"/>
<feColorMatrix in="SourceAlpha" type="matrix" values="0 0 0 0 0 0 0 0 0 0 0 0 0 0 0 0 0 0 127 0" result="hardAlpha"/>
<feOffset dy="0.576395"/>
<feGaussianBlur stdDeviation="0.432296"/>
<feColorMatrix type="matrix" values="0 0 0 0 1 0 0 0 0 1 0 0 0 0 1 0 0 0 0.41 0"/>
<feBlend mode="normal" in2="BackgroundImageFix" result="effect1_dropShadow_631_2213"/>
<feBlend mode="normal" in="SourceGraphic" in2="effect1_dropShadow_631_2213" result="shape"/>
<feColorMatrix in="SourceAlpha" type="matrix" values="0 0 0 0 0 0 0 0 0 0 0 0 0 0 0 0 0 0 127 0" result="hardAlpha"/>
<feOffset dx="-4.32296" dy="2.88197"/>
<feGaussianBlur stdDeviation="2.16148"/>
<feComposite in2="hardAlpha" operator="arithmetic" k2="-1" k3="1"/>
<feColorMatrix type="matrix" values="0 0 0 0 0 0 0 0 0 0 0 0 0 0 0 0 0 0 0.25 0"/>
<feBlend mode="normal" in2="shape" result="effect2_innerShadow_631_2213"/>
</filter>
<filter id="filter4_d_631_2213" x="64.6592" y="382.886" width="64.6816" height="100.743" filterUnits="userSpaceOnUse" color-interpolation-filters="sRGB">
<feFlood flood-opacity="0" result="BackgroundImageFix"/>
<feColorMatrix in="SourceAlpha" type="matrix" values="0 0 0 0 0 0 0 0 0 0 0 0 0 0 0 0 0 0 127 0" result="hardAlpha"/>
<feOffset/>
<feGaussianBlur stdDeviation="0.525873"/>
<feComposite in2="hardAlpha" operator="out"/>
<feColorMatrix type="matrix" values="0 0 0 0 0 0 0 0 0 0 0 0 0 0 0 0 0 0 0.25 0"/>
<feBlend mode="normal" in2="BackgroundImageFix" result="effect1_dropShadow_631_2213"/>
<feBlend mode="normal" in="SourceGraphic" in2="effect1_dropShadow_631_2213" result="shape"/>
</filter>
<filter id="filter5_di_631_2213" x="67.8135" y="392.06" width="55.7902" height="84.2855" filterUnits="userSpaceOnUse" color-interpolation-filters="sRGB">
<feFlood flood-opacity="0" result="BackgroundImageFix"/>
<feColorMatrix in="SourceAlpha" type="matrix" values="0 0 0 0 0 0 0 0 0 0 0 0 0 0 0 0 0 0 127 0" result="hardAlpha"/>
<feOffset dy="0.420698"/>
<feGaussianBlur stdDeviation="0.315524"/>
<feColorMatrix type="matrix" values="0 0 0 0 1 0 0 0 0 1 0 0 0 0 1 0 0 0 0.41 0"/>
<feBlend mode="normal" in2="BackgroundImageFix" result="effect1_dropShadow_631_2213"/>
<feBlend mode="normal" in="SourceGraphic" in2="effect1_dropShadow_631_2213" result="shape"/>
<feColorMatrix in="SourceAlpha" type="matrix" values="0 0 0 0 0 0 0 0 0 0 0 0 0 0 0 0 0 0 127 0" result="hardAlpha"/>
<feOffset dx="-3.15524" dy="2.10349"/>
<feGaussianBlur stdDeviation="1.57762"/>
<feComposite in2="hardAlpha" operator="arithmetic" k2="-1" k3="1"/>
<feColorMatrix type="matrix" values="0 0 0 0 0 0 0 0 0 0 0 0 0 0 0 0 0 0 0.25 0"/>
<feBlend mode="normal" in2="shape" result="effect2_innerShadow_631_2213"/>
</filter>
<filter id="filter6_d_631_2213" x="66.4936" y="386.045" width="60.8907" height="97.0267" filterUnits="userSpaceOnUse" color-interpolation-filters="sRGB">
<feFlood flood-opacity="0" result="BackgroundImageFix"/>
<feColorMatrix in="SourceAlpha" type="matrix" values="0 0 0 0 0 0 0 0 0 0 0 0 0 0 0 0 0 0 127 0" result="hardAlpha"/>
<feOffset/>
<feGaussianBlur stdDeviation="0.467549"/>
<feComposite in2="hardAlpha" operator="out"/>
<feColorMatrix type="matrix" values="0 0 0 0 0 0 0 0 0 0 0 0 0 0 0 0 0 0 0.25 0"/>
<feBlend mode="normal" in2="BackgroundImageFix" result="effect1_dropShadow_631_2213"/>
<feBlend mode="normal" in="SourceGraphic" in2="effect1_dropShadow_631_2213" result="shape"/>
</filter>
<filter id="filter7_d_631_2213" x="66.3707" y="385.922" width="61.1365" height="97.2725" filterUnits="userSpaceOnUse" color-interpolation-filters="sRGB">
<feFlood flood-opacity="0" result="BackgroundImageFix"/>
<feColorMatrix in="SourceAlpha" type="matrix" values="0 0 0 0 0 0 0 0 0 0 0 0 0 0 0 0 0 0 127 0" result="hardAlpha"/>
<feOffset/>
<feGaussianBlur stdDeviation="0.529003"/>
<feComposite in2="hardAlpha" operator="out"/>
<feColorMatrix type="matrix" values="0 0 0 0 0 0 0 0 0 0 0 0 0 0 0 0 0 0 0.25 0"/>
<feBlend mode="normal" in2="BackgroundImageFix" result="effect1_dropShadow_631_2213"/>
<feBlend mode="normal" in="SourceGraphic" in2="effect1_dropShadow_631_2213" result="shape"/>
</filter>
<filter id="filter8_di_631_2213" x="70.053" y="398.936" width="48.7471" height="73.6209" filterUnits="userSpaceOnUse" color-interpolation-filters="sRGB">
<feFlood flood-opacity="0" result="BackgroundImageFix"/>
<feColorMatrix in="SourceAlpha" type="matrix" values="0 0 0 0 0 0 0 0 0 0 0 0 0 0 0 0 0 0 127 0" result="hardAlpha"/>
<feOffset dy="0.576395"/>
<feGaussianBlur stdDeviation="0.432296"/>
<feColorMatrix type="matrix" values="0 0 0 0 1 0 0 0 0 1 0 0 0 0 1 0 0 0 0.41 0"/>
<feBlend mode="normal" in2="BackgroundImageFix" result="effect1_dropShadow_631_2213"/>
<feBlend mode="normal" in="SourceGraphic" in2="effect1_dropShadow_631_2213" result="shape"/>
<feColorMatrix in="SourceAlpha" type="matrix" values="0 0 0 0 0 0 0 0 0 0 0 0 0 0 0 0 0 0 127 0" result="hardAlpha"/>
<feOffset dx="-4.32296" dy="2.88197"/>
<feGaussianBlur stdDeviation="2.16148"/>
<feComposite in2="hardAlpha" operator="arithmetic" k2="-1" k3="1"/>
<feColorMatrix type="matrix" values="0 0 0 0 0 0 0 0 0 0 0 0 0 0 0 0 0 0 0.25 0"/>
<feBlend mode="normal" in2="shape" result="effect2_innerShadow_631_2213"/>
</filter>
<filter id="filter9_ii_631_2213" x="31" y="131.472" width="727.95" height="512.486" filterUnits="userSpaceOnUse" color-interpolation-filters="sRGB">
<feFlood flood-opacity="0" result="BackgroundImageFix"/>
<feBlend mode="normal" in="SourceGraphic" in2="BackgroundImageFix" result="shape"/>
<feColorMatrix in="SourceAlpha" type="matrix" values="0 0 0 0 0 0 0 0 0 0 0 0 0 0 0 0 0 0 127 0" result="hardAlpha"/>
<feOffset dx="8.64592" dy="-11.5279"/>
<feGaussianBlur stdDeviation="34.5837"/>
<feComposite in2="hardAlpha" operator="arithmetic" k2="-1" k3="1"/>
<feColorMatrix type="matrix" values="0 0 0 0 0 0 0 0 0 0 0 0 0 0 0 0 0 0 0.07 0"/>
<feBlend mode="normal" in2="shape" result="effect1_innerShadow_631_2213"/>
<feColorMatrix in="SourceAlpha" type="matrix" values="0 0 0 0 0 0 0 0 0 0 0 0 0 0 0 0 0 0 127 0" result="hardAlpha"/>
<feOffset dy="-1.44099"/>
<feGaussianBlur stdDeviation="2.88197"/>
<feComposite in2="hardAlpha" operator="arithmetic" k2="-1" k3="1"/>
<feColorMatrix type="matrix" values="0 0 0 0 0 0 0 0 0 0 0 0 0 0 0 0 0 0 0.25 0"/>
<feBlend mode="normal" in2="effect1_innerShadow_631_2213" result="effect2_innerShadow_631_2213"/>
</filter>
<filter id="filter10_ddi_631_2213" x="357.544" y="245.456" width="260.307" height="183.263" filterUnits="userSpaceOnUse" color-interpolation-filters="sRGB">
<feFlood flood-opacity="0" result="BackgroundImageFix"/>
<feColorMatrix in="SourceAlpha" type="matrix" values="0 0 0 0 0 0 0 0 0 0 0 0 0 0 0 0 0 0 127 0" result="hardAlpha"/>
<feOffset dx="-2.4593" dy="1.22965"/>
<feGaussianBlur stdDeviation="1.22965"/>
<feColorMatrix type="matrix" values="0 0 0 0 1 0 0 0 0 1 0 0 0 0 1 0 0 0 0.28 0"/>
<feBlend mode="normal" in2="BackgroundImageFix" result="effect1_dropShadow_631_2213"/>
<feColorMatrix in="SourceAlpha" type="matrix" values="0 0 0 0 0 0 0 0 0 0 0 0 0 0 0 0 0 0 127 0" result="hardAlpha"/>
<feOffset dy="-1.22965"/>
<feGaussianBlur stdDeviation="1.22965"/>
<feColorMatrix type="matrix" values="0 0 0 0 1 0 0 0 0 1 0 0 0 0 1 0 0 0 0.56 0"/>
<feBlend mode="normal" in2="effect1_dropShadow_631_2213" result="effect2_dropShadow_631_2213"/>
<feBlend mode="normal" in="SourceGraphic" in2="effect2_dropShadow_631_2213" result="shape"/>
<feColorMatrix in="SourceAlpha" type="matrix" values="0 0 0 0 0 0 0 0 0 0 0 0 0 0 0 0 0 0 127 0" result="hardAlpha"/>
<feOffset dx="-1.22965" dy="3.68894"/>
<feGaussianBlur stdDeviation="1.84447"/>
<feComposite in2="hardAlpha" operator="arithmetic" k2="-1" k3="1"/>
<feColorMatrix type="matrix" values="0 0 0 0 0 0 0 0 0 0 0 0 0 0 0 0 0 0 0.75 0"/>
<feBlend mode="normal" in2="shape" result="effect3_innerShadow_631_2213"/>
</filter>
<filter id="filter11_di_631_2213" x="90.357" y="239.627" width="298.775" height="188.173" filterUnits="userSpaceOnUse" color-interpolation-filters="sRGB">
<feFlood flood-opacity="0" result="BackgroundImageFix"/>
<feColorMatrix in="SourceAlpha" type="matrix" values="0 0 0 0 0 0 0 0 0 0 0 0 0 0 0 0 0 0 127 0" result="hardAlpha"/>
<feOffset dy="0.905297"/>
<feGaussianBlur stdDeviation="0.452649"/>
<feColorMatrix type="matrix" values="0 0 0 0 0.925374 0 0 0 0 0.925374 0 0 0 0 0.925374 0 0 0 0.37 0"/>
<feBlend mode="normal" in2="BackgroundImageFix" result="effect1_dropShadow_631_2213"/>
<feBlend mode="normal" in="SourceGraphic" in2="effect1_dropShadow_631_2213" result="shape"/>
<feColorMatrix in="SourceAlpha" type="matrix" values="0 0 0 0 0 0 0 0 0 0 0 0 0 0 0 0 0 0 127 0" result="hardAlpha"/>
<feOffset dx="-6.03563" dy="4.36889"/>
<feGaussianBlur stdDeviation="3.01781"/>
<feComposite in2="hardAlpha" operator="arithmetic" k2="-1" k3="1"/>
<feColorMatrix type="matrix" values="0 0 0 0 0 0 0 0 0 0 0 0 0 0 0 0 0 0 0.63 0"/>
<feBlend mode="normal" in2="shape" result="effect2_innerShadow_631_2213"/>
</filter>
<filter id="filter12_f_631_2213" x="314.838" y="386.347" width="381.371" height="181.505" filterUnits="userSpaceOnUse" color-interpolation-filters="sRGB">
<feFlood flood-opacity="0" result="BackgroundImageFix"/>
<feBlend mode="normal" in="SourceGraphic" in2="BackgroundImageFix" result="shape"/>
<feGaussianBlur stdDeviation="17.2151" result="effect1_foregroundBlur_631_2213"/>
</filter>
<filter id="filter13_f_631_2213" x="593.18" y="293.379" width="180.183" height="197.596" filterUnits="userSpaceOnUse" color-interpolation-filters="sRGB">
<feFlood flood-opacity="0" result="BackgroundImageFix"/>
<feBlend mode="normal" in="SourceGraphic" in2="BackgroundImageFix" result="shape"/>
<feGaussianBlur stdDeviation="11.0668" result="effect1_foregroundBlur_631_2213"/>
</filter>
<filter id="filter14_di_631_2213" x="251.386" y="393.375" width="24.753" height="20.3468" filterUnits="userSpaceOnUse" color-interpolation-filters="sRGB">
<feFlood flood-opacity="0" result="BackgroundImageFix"/>
<feColorMatrix in="SourceAlpha" type="matrix" values="0 0 0 0 0 0 0 0 0 0 0 0 0 0 0 0 0 0 127 0" result="hardAlpha"/>
<feOffset dy="-0.609879"/>
<feGaussianBlur stdDeviation="0.304939"/>
<feColorMatrix type="matrix" values="0 0 0 0 0.78755 0 0 0 0 0.78755 0 0 0 0 0.78755 0 0 0 0.19 0"/>
<feBlend mode="normal" in2="BackgroundImageFix" result="effect1_dropShadow_631_2213"/>
<feBlend mode="normal" in="SourceGraphic" in2="effect1_dropShadow_631_2213" result="shape"/>
<feColorMatrix in="SourceAlpha" type="matrix" values="0 0 0 0 0 0 0 0 0 0 0 0 0 0 0 0 0 0 127 0" result="hardAlpha"/>
<feOffset dy="3.04939"/>
<feGaussianBlur stdDeviation="1.5247"/>
<feComposite in2="hardAlpha" operator="arithmetic" k2="-1" k3="1"/>
<feColorMatrix type="matrix" values="0 0 0 0 0 0 0 0 0 0 0 0 0 0 0 0 0 0 0.74 0"/>
<feBlend mode="normal" in2="shape" result="effect2_innerShadow_631_2213"/>
</filter>
<filter id="filter15_di_631_2213" x="142.296" y="347.028" width="24.753" height="20.3473" filterUnits="userSpaceOnUse" color-interpolation-filters="sRGB">
<feFlood flood-opacity="0" result="BackgroundImageFix"/>
<feColorMatrix in="SourceAlpha" type="matrix" values="0 0 0 0 0 0 0 0 0 0 0 0 0 0 0 0 0 0 127 0" result="hardAlpha"/>
<feOffset dy="-0.609879"/>
<feGaussianBlur stdDeviation="0.304939"/>
<feColorMatrix type="matrix" values="0 0 0 0 0.78755 0 0 0 0 0.78755 0 0 0 0 0.78755 0 0 0 0.19 0"/>
<feBlend mode="normal" in2="BackgroundImageFix" result="effect1_dropShadow_631_2213"/>
<feBlend mode="normal" in="SourceGraphic" in2="effect1_dropShadow_631_2213" result="shape"/>
<feColorMatrix in="SourceAlpha" type="matrix" values="0 0 0 0 0 0 0 0 0 0 0 0 0 0 0 0 0 0 127 0" result="hardAlpha"/>
<feOffset dy="3.04939"/>
<feGaussianBlur stdDeviation="1.5247"/>
<feComposite in2="hardAlpha" operator="arithmetic" k2="-1" k3="1"/>
<feColorMatrix type="matrix" values="0 0 0 0 0 0 0 0 0 0 0 0 0 0 0 0 0 0 0.74 0"/>
<feBlend mode="normal" in2="shape" result="effect2_innerShadow_631_2213"/>
</filter>
<filter id="filter16_f_631_2213" x="521.221" y="381.687" width="253.148" height="181.543" filterUnits="userSpaceOnUse" color-interpolation-filters="sRGB">
<feFlood flood-opacity="0" result="BackgroundImageFix"/>
<feBlend mode="normal" in="SourceGraphic" in2="BackgroundImageFix" result="shape"/>
<feGaussianBlur stdDeviation="6.14824" result="effect1_foregroundBlur_631_2213"/>
</filter>
<filter id="filter17_dii_631_2213" x="468.59" y="416.194" width="283.757" height="146.963" filterUnits="userSpaceOnUse" color-interpolation-filters="sRGB">
<feFlood flood-opacity="0" result="BackgroundImageFix"/>
<feColorMatrix in="SourceAlpha" type="matrix" values="0 0 0 0 0 0 0 0 0 0 0 0 0 0 0 0 0 0 127 0" result="hardAlpha"/>
<feOffset dy="0.694325"/>
<feGaussianBlur stdDeviation="1.48756"/>
<feColorMatrix type="matrix" values="0 0 0 0 0 0 0 0 0 0 0 0 0 0 0 0 0 0 0.63 0"/>
<feBlend mode="normal" in2="BackgroundImageFix" result="effect1_dropShadow_631_2213"/>
<feBlend mode="normal" in="SourceGraphic" in2="effect1_dropShadow_631_2213" result="shape"/>
<feColorMatrix in="SourceAlpha" type="matrix" values="0 0 0 0 0 0 0 0 0 0 0 0 0 0 0 0 0 0 127 0" result="hardAlpha"/>
<feOffset dy="0.694325"/>
<feGaussianBlur stdDeviation="0.694325"/>
<feComposite in2="hardAlpha" operator="arithmetic" k2="-1" k3="1"/>
<feColorMatrix type="matrix" values="0 0 0 0 0 0 0 0 0 0 0 0 0 0 0 0 0 0 0.25 0"/>
<feBlend mode="normal" in2="shape" result="effect2_innerShadow_631_2213"/>
<feColorMatrix in="SourceAlpha" type="matrix" values="0 0 0 0 0 0 0 0 0 0 0 0 0 0 0 0 0 0 127 0" result="hardAlpha"/>
<feOffset dy="-0.694325"/>
<feGaussianBlur stdDeviation="0.694325"/>
<feComposite in2="hardAlpha" operator="arithmetic" k2="-1" k3="1"/>
<feColorMatrix type="matrix" values="0 0 0 0 0 0 0 0 0 0 0 0 0 0 0 0 0 0 0.25 0"/>
<feBlend mode="normal" in2="effect2_innerShadow_631_2213" result="effect3_innerShadow_631_2213"/>
</filter>
<filter id="filter18_d_631_2213" x="510.26" y="508.397" width="86.5587" height="33.2352" filterUnits="userSpaceOnUse" color-interpolation-filters="sRGB">
<feFlood flood-opacity="0" result="BackgroundImageFix"/>
<feColorMatrix in="SourceAlpha" type="matrix" values="0 0 0 0 0 0 0 0 0 0 0 0 0 0 0 0 0 0 127 0" result="hardAlpha"/>
<feOffset dx="1.13841" dy="1.41412"/>
<feGaussianBlur stdDeviation="0.707062"/>
<feColorMatrix type="matrix" values="0 0 0 0 1 0 0 0 0 1 0 0 0 0 1 0 0 0 0.24 0"/>
<feBlend mode="normal" in2="BackgroundImageFix" result="effect1_dropShadow_631_2213"/>
<feBlend mode="normal" in="SourceGraphic" in2="effect1_dropShadow_631_2213" result="shape"/>
</filter>
<filter id="filter19_d_631_2213" x="718.86" y="422.739" width="26.9591" height="33.4503" filterUnits="userSpaceOnUse" color-interpolation-filters="sRGB">
<feFlood flood-opacity="0" result="BackgroundImageFix"/>
<feColorMatrix in="SourceAlpha" type="matrix" values="0 0 0 0 0 0 0 0 0 0 0 0 0 0 0 0 0 0 127 0" result="hardAlpha"/>
<feOffset dx="1.13841" dy="1.41412"/>
<feGaussianBlur stdDeviation="0.707062"/>
<feColorMatrix type="matrix" values="0 0 0 0 1 0 0 0 0 1 0 0 0 0 1 0 0 0 0.24 0"/>
<feBlend mode="normal" in2="BackgroundImageFix" result="effect1_dropShadow_631_2213"/>
<feBlend mode="normal" in="SourceGraphic" in2="effect1_dropShadow_631_2213" result="shape"/>
</filter>
<filter id="filter20_f_631_2213" x="146.775" y="375.921" width="224.778" height="165.001" filterUnits="userSpaceOnUse" color-interpolation-filters="sRGB">
<feFlood flood-opacity="0" result="BackgroundImageFix"/>
<feBlend mode="normal" in="SourceGraphic" in2="BackgroundImageFix" result="shape"/>
<feGaussianBlur stdDeviation="1.89119" result="effect1_foregroundBlur_631_2213"/>
</filter>
<linearGradient id="paint0_linear_631_2213" x1="378.01" y1="627.164" x2="348.772" y2="574.033" gradientUnits="userSpaceOnUse">
<stop stop-color="#3F3F3F"/>
<stop offset="1" stop-color="#5C5C5C"/>
</linearGradient>
<linearGradient id="paint1_linear_631_2213" x1="377.41" y1="618.336" x2="352.635" y2="513.03" gradientUnits="userSpaceOnUse">
<stop stop-color="#3F3F3F"/>
<stop offset="1" stop-color="#777676"/>
</linearGradient>
<linearGradient id="paint2_linear_631_2213" x1="64.6937" y1="469.002" x2="48.2824" y2="419.784" gradientUnits="userSpaceOnUse">
<stop stop-color="#3F3F3F"/>
<stop offset="1" stop-color="#5C5C5C"/>
</linearGradient>
<linearGradient id="paint3_linear_631_2213" x1="65.0035" y1="461.568" x2="63.2192" y2="369.642" gradientUnits="userSpaceOnUse">
<stop stop-color="#3F3F3F"/>
<stop offset="1" stop-color="#777676"/>
</linearGradient>
<linearGradient id="paint4_linear_631_2213" x1="498.927" y1="643.554" x2="744.869" y2="290.646" gradientUnits="userSpaceOnUse">
<stop stop-color="#262626"/>
<stop offset="0.628054" stop-color="#545454"/>
<stop offset="1" stop-color="#A8A8A8"/>
</linearGradient>
<linearGradient id="paint5_linear_631_2213" x1="473.648" y1="535.029" x2="292.341" y2="135.362" gradientUnits="userSpaceOnUse">
<stop stop-color="#CECBCB"/>
<stop offset="1" stop-color="white"/>
</linearGradient>
<linearGradient id="paint6_linear_631_2213" x1="498.705" y1="120.901" x2="303.714" y2="310.57" gradientUnits="userSpaceOnUse">
<stop stop-color="#E8EAE9"/>
<stop offset="0.498386" stop-color="#707072"/>
<stop offset="1" stop-color="#2F3032"/>
</linearGradient>
<linearGradient id="paint7_linear_631_2213" x1="624.718" y1="822.768" x2="507.465" y2="218.353" gradientUnits="userSpaceOnUse">
<stop stop-color="#E8EAE9"/>
<stop offset="0.498386" stop-color="#707072"/>
<stop offset="1" stop-color="#2F3032"/>
</linearGradient>
<linearGradient id="paint8_linear_631_2213" x1="496.248" y1="541.322" x2="519.778" y2="469.298" gradientUnits="userSpaceOnUse">
<stop stop-color="#ECEAEA"/>
<stop offset="1" stop-color="white" stop-opacity="0"/>
</linearGradient>
<linearGradient id="paint9_linear_631_2213" x1="773.097" y1="409.741" x2="681.028" y2="443.312" gradientUnits="userSpaceOnUse">
<stop stop-color="#ECEAEA"/>
<stop offset="1" stop-color="white" stop-opacity="0"/>
</linearGradient>
<linearGradient id="paint10_linear_631_2213" x1="650.573" y1="508.502" x2="633.591" y2="476.581" gradientUnits="userSpaceOnUse">
<stop stop-color="#4B4B4B"/>
<stop offset="0.899322" stop-opacity="0"/>
</linearGradient>
<linearGradient id="paint11_linear_631_2213" x1="229.037" y1="521.957" x2="276.239" y2="434.474" gradientUnits="userSpaceOnUse">
<stop stop-color="#040404"/>
<stop offset="1" stop-color="#3C3C3C" stop-opacity="0"/>
</linearGradient>
<clipPath id="clip0_631_2213">
<rect width="781" height="781" fill="white"/>
</clipPath>
</defs>
</svg>
